<svg xmlns="http://www.w3.org/2000/svg" viewBox="0 0 841.89 595.28"><defs><style>.cls-1{isolation:isolate;}.cls-2{fill:#134486;}.cls-3{fill:#a51259;}.cls-4{fill:#a41259;}.cls-5{fill:#c41344;}.cls-6{fill:#fff;}.cls-7{opacity:0.3;mix-blend-mode:multiply;}.cls-8{fill:#010101;}</style></defs><g class="cls-1"><g id="Layer_1" data-name="Layer 1"><path class="cls-2" d="M612.2,95.57,603.14,45.2C545.75,79.56,511,108.37,436.6,38.27c-87.55,82.5-135.73,23.31-166,4.31l-9.55,53c-.66,3.67-14.08,80.8,8.2,158.4a259.88,259.88,0,0,0,11.2,31.59A250.26,250.26,0,0,0,306,331.14q.42.63.87,1.23,5.1,7.17,10.55,13.8c.11.13.21.26.32.38q3.29,4,6.68,7.82a49.85,49.85,0,0,0,20.81-7.05q-3.19-3.36-6.29-6.88c-.13-.13-.25-.27-.37-.41q-4.65-5.29-9.09-11c-.33-.41-.66-.84-1-1.26a231.58,231.58,0,0,1-29.62-50.2,252.35,252.35,0,0,1-13.32-40.26c-16.81-69.06-5.35-134.93-4.76-138.22l3.77-21c52.59,32,110.3,32.16,152.8-12.38,42.94,47.13,102,42.37,151.26,12.86l3.82,20.51c.58,3.21,11.55,66.24-3.68,133.59a256.62,256.62,0,0,1-14.4,44.89,232,232,0,0,1-28.58,48.83s0,0,0,0c-2.93,3.88-6,7.61-9.06,11.23q-3.11,3.62-6.29,7.05A43.43,43.43,0,0,0,550,353q3.35-3.81,6.6-7.81l.08-.1q5.2-6.44,10.13-13.34l.06-.11a250.87,250.87,0,0,0,25.93-46.1,267.55,267.55,0,0,0,12.63-36.75C625.69,173,612.85,99.16,612.2,95.57Z"/><path class="cls-3" d="M270.55,42.58l-9.55,53c-.66,3.67-14.08,80.8,8.2,158.4a259.88,259.88,0,0,0,11.2,31.59A250.26,250.26,0,0,0,306,331.14q.42.63.87,1.23,5.1,7.17,10.55,13.8c.11.13.21.26.32.38q3.29,4,6.68,7.82a49.85,49.85,0,0,0,20.81-7.05q-3.19-3.36-6.29-6.88c-.13-.13-.25-.27-.37-.41q-4.65-5.29-9.09-11c-.33-.41-.66-.84-1-1.26a231.58,231.58,0,0,1-29.62-50.2,252.35,252.35,0,0,1-13.32-40.26c-16.81-69.06-5.35-134.93-4.76-138.22l3.77-21c50.91,31,108.4,33.58,152.4-12l-.35-28.33C351.18,115.74,300.48,61.34,270.55,42.58Z"/><path class="cls-2" d="M404.52,275.32C379.58,265.7,362.45,247.71,351,224c-6.79-14-10.93-28.62-7.72-45.06-5.54,5.75-11,11.57-16.63,17.24C313,210,299.21,223.62,285.54,237.35q-7.16,7.2-14.28,14.43c-.71.72-1.4,1.46-2.06,2.19-9.89,11-15.1,24-13.72,39.07,2.21,24.2,15.26,41.68,35.85,53.62,10.56,6.12,22,8.83,33.06,7.71a49.85,49.85,0,0,0,20.81-7.05,57.42,57.42,0,0,0,9.3-7.05c19.39-17.92,39.52-35,59.32-52.5,2.81-2.49,5.59-5,8.34-7.5C416,278.58,410.08,277.46,404.52,275.32ZM288.28,334.26c-1.89-.39-3.44-2.46-6.3-4.69,3-2.08,4.59-3.88,6.54-4.41,2.3-.62,4.92,2.42,4.56,4.87C292.68,332.7,290.94,334.81,288.28,334.26Zm97.37-33.86C373,312,360,323.38,347.05,334.67a50.51,50.51,0,0,1-8.14,5.77,47.25,47.25,0,0,1-21.2,6.11c-.49,0-1,.06-1.5.07-4.2-.69-8.4-1.38-12.58-2.1a8.11,8.11,0,0,1-1.27-.31,7.44,7.44,0,0,1-1-.4c-2.93-1.46-5.87-3.09-5.53-7,.26-2.78,4.19-4.64,8.48-4.53l2.55.08a74.49,74.49,0,0,0,11.38-.1,35.29,35.29,0,0,0,11.23-3.2,46,46,0,0,0,11.14-7.5c12.06-10.72,24.12-21.45,36.31-32a26.89,26.89,0,0,1,8-5.06,7.24,7.24,0,0,1,6.16.78c1.18,1,1.66,4.21.94,5.73a36.67,36.67,0,0,1-4.12,6.95A19,19,0,0,1,385.65,300.4Z"/><path class="cls-4" d="M430.46,259.48c-6.8-21.68-18.52-40.2-34.37-56.17-6.52-6.57-13.7-12.4-22.77-15.14-8.83-2.67-15,1-16.11,10.11a48.72,48.72,0,0,0,.71,13.45c.65,4.16,2.16,8.19,2.48,12.61-2.13-5.52-4.85-10.89-6.24-16.6a88.53,88.53,0,0,1-2.88-20.42c0-10.25,7.2-15.14,17.08-12.39,9.27,2.58,16.66,8.29,23.41,14.83,17.76,17.24,30.8,37.38,37.15,61.53C429.62,254,430,256.75,430.46,259.48Z"/><path class="cls-5" d="M379.48,219.9a11,11,0,0,1,10.94-11.29,11.2,11.2,0,0,1,11.49,11.23A11.46,11.46,0,0,1,390.68,231,11.21,11.21,0,0,1,379.48,219.9Z"/><path class="cls-6" d="M561.45,345.66c-11.53-.87-21.57-4.58-30.11-12-13-11.33-26-22.71-38.79-34.35a29.77,29.77,0,0,1-6.34-9.38c-.71-1.51-.22-4.71,1-5.68,1.36-1.13,4.3-1.36,6.12-.73a23.44,23.44,0,0,1,7.36,4.59c11.93,10.38,23.83,20.79,35.54,31.41,10.13,9.19,21.68,13.57,35.4,11.77a15.52,15.52,0,0,1,4,0c2.85.39,6.23,1.2,6.12,4.46-.07,2.09-2.22,5.19-4.15,5.91C572.37,343.52,566.83,344.38,561.45,345.66Z"/><path class="cls-6" d="M584.11,327.72c1.72-1.25,3.3-3.24,5.17-3.57a3.69,3.69,0,0,1,4.35,4.33c-.3,1.68-2.54,4.06-4.07,4.19-1.69.14-3.57-1.93-5.37-3C584.16,329,584.14,328.36,584.11,327.72Z"/><path class="cls-6" d="M281.16,328.58c2.37-1.73,4.57-4.49,7.17-4.95a5.11,5.11,0,0,1,6,6c-.42,2.33-3.52,5.63-5.64,5.81-2.35.19-5-2.68-7.46-4.21C281.23,330.36,281.19,329.47,281.16,328.58Z"/><path class="cls-6" d="M315.72,346.78c-4.48-.74-9.82-1.95-14.3-2.72a8.59,8.59,0,0,1-2.43-.76c-3.13-1.56-6.27-3.29-5.89-7.46.27-3,4.45-4.94,9-4.83,5,.13,10,.53,14.87,0,9.18-1,17-5.3,23.87-11.41,12.87-11.45,25.74-22.89,38.74-34.19a29.11,29.11,0,0,1,8.57-5.4c1.91-.71,5.1-.38,6.57.85,1.25,1,1.77,4.48,1,6.1A31.87,31.87,0,0,1,389,297c-13.55,12.39-27.34,24.52-41.2,36.55C338.39,341.67,331.13,347.26,315.72,346.78Z"/><path class="cls-3" d="M605.44,248.81c-.75-.76-1.52-1.51-2.32-2.25-4.88-4.52-9.65-9.15-14.37-13.84-9.08-9.05-18-18.31-27-27.43s-18-18.45-27-27.68c8.57,32.33-24.87,93.9-79,101.17a6.59,6.59,0,0,0,.65,1c23.7,20.91,47.34,41.89,71.16,62.66.93.81,1.88,1.58,2.85,2.29A43.43,43.43,0,0,0,550,353a45.31,45.31,0,0,0,8,.6c18.29-.19,33.23-8.1,45.6-21C626.61,308.75,631.29,274.89,605.44,248.81Zm-27.61,92.93c-5.16,1.92-10.71,2.79-16.11,4.06-1.73-.13-3.45-.32-5.11-.59a49.9,49.9,0,0,1-18.39-6.55c-.52-.31-1-.62-1.53-1l-.24-.16a48.41,48.41,0,0,1-5-3.78c-13.07-11.37-26.11-22.79-38.91-34.46a29.91,29.91,0,0,1-6.37-9.42,6.42,6.42,0,0,1,0-4.07,5.3,5.3,0,0,1,.39-.9,2.18,2.18,0,0,1,.55-.72c1.38-1.14,4.33-1.37,6.15-.73a23.38,23.38,0,0,1,7.39,4.6c12,10.41,23.91,20.85,35.65,31.51a52.16,52.16,0,0,0,9.41,6.87,43.11,43.11,0,0,0,4.42,2.18c.84.36,1.69.69,2.56,1a39.72,39.72,0,0,0,14.07,2.18,49.3,49.3,0,0,0,5-.38,14.82,14.82,0,0,1,4-.05,15.49,15.49,0,0,1,2.66.54,1.13,1.13,0,0,1,.24.08c1.85.59,3.32,1.69,3.24,3.86S579.78,341,577.83,341.74ZM594,328.58c-.3,1.68-2.55,4.06-4.08,4.2a2.75,2.75,0,0,1-1.11-.18h0c-1.38-.54-2.84-2-4.25-2.86l-.06-1.92c1.71-1.26,3.3-3.25,5.18-3.59a4.53,4.53,0,0,1,1.27,0A3.7,3.7,0,0,1,594,328.58Z"/><path class="cls-2" d="M447.11,257.48c2.52-7.79,4.4-15.86,7.69-23.31,9.69-21.95,23.23-41.09,43.43-54.69a45.09,45.09,0,0,1,14.23-5.92c7-1.72,12.23,2.13,13.82,9.24,2.16,9.66-.45,18.78-3.53,27.78A62,62,0,0,1,518,220.86c1.09-5.44,2.44-10.85,3.15-16.35a28.07,28.07,0,0,0-.49-9.49c-1.49-6.92-7.48-10.24-14.76-8.32-9.9,2.61-17.57,8.87-24.52,16-15.16,15.46-26.62,33.24-32.67,54.22-.1.34-.27.67-.4,1Z"/><path class="cls-3" d="M443,399.05l-6.39,3.1-6.39-3.1c-21.77-10.53-54.95-33.5-78.68-54.51-6.26,4-12.91,8-20.14,8.95,29.34,30.15,62,49.61,89.89,63.1L436.6,424l15.33-7.42c27.87-13.49,61.41-34.07,90.75-64.22a50.36,50.36,0,0,1-18.15-10.57C500.79,362.81,464.77,388.52,443,399.05Z"/><path class="cls-2" d="M436.6,402.15V424l-15.32-7.42c-27.88-13.49-60.55-32.95-89.89-63.1,7.23-1,13.88-4.91,20.14-8.95,23.73,21,56.91,44,78.68,54.51Z"/><path class="cls-3" d="M500.26,139.39H458.18V97.31a8,8,0,0,0-8-8H433.08a8,8,0,0,0-8,8v42.08H383a8,8,0,0,0-8,8v17.12a8,8,0,0,0,8,8H425.1v42.08a8,8,0,0,0,8,8H450.2a8,8,0,0,0,8-8V172.47h42.08a8,8,0,0,0,8-8V147.37A8,8,0,0,0,500.26,139.39Z"/><path class="cls-6" d="M382.77,141.94h42.64a0,0,0,0,1,0,0v4.48a0,0,0,0,1,0,0H379.52a0,0,0,0,1,0,0V145.2A3.26,3.26,0,0,1,382.77,141.94Z"/><path class="cls-6" d="M460.8,163.21h43a0,0,0,0,1,0,0v5.6a0,0,0,0,1,0,0H457.87a0,0,0,0,1,0,0v-2.67A2.93,2.93,0,0,1,460.8,163.21Z" transform="translate(961.63 332.01) rotate(180)"/><g class="cls-7"><path class="cls-8" d="M603.2,455.16a13,13,0,0,1,8.73-2.88c4.08,0,7.37,1.15,9.78,3.43a14.38,14.38,0,0,1,4.16,7.35h16a23.76,23.76,0,0,0-8.64-15.31c-5.21-4.22-12.34-6.37-21.22-6.37-8.54,0-15.47,2.09-20.6,6.19-4.82,3.86-7.3,8.94-7.56,15.5h7.6a11.76,11.76,0,0,0,9.86-5.78A9.58,9.58,0,0,1,603.2,455.16Z"/><path class="cls-8" d="M620.62,527.87a30,30,0,0,0,10.73-3,22.78,22.78,0,0,0,9.34-8.51,22.4,22.4,0,0,0,3.15-11.6c0-5.28-1.17-9.59-3.46-12.8a22.85,22.85,0,0,0-8.45-7.36,125.78,125.78,0,0,0-13.54-5.5c-2.62-.86-5-1.7-7-2.51H587.2a23.39,23.39,0,0,0,8.4,7.37,96.74,96.74,0,0,0,13.19,5.31c4.23,1.41,7.61,2.68,10,3.77a18.71,18.71,0,0,1,6.44,4.63,11.26,11.26,0,0,1,2.71,7.7,11.57,11.57,0,0,1-3.33,8.51l0,0a12.77,12.77,0,0,0-4,9Z"/></g><path class="cls-2" d="M596.31,451.89A13,13,0,0,1,605,449c4.08,0,7.37,1.15,9.78,3.42a14.3,14.3,0,0,1,4.16,7.36h16a23.77,23.77,0,0,0-8.63-15.31c-5.21-4.23-12.35-6.37-21.22-6.37-8.55,0-15.48,2.08-20.61,6.19-4.82,3.86-7.3,8.94-7.56,15.49h7.6a11.74,11.74,0,0,0,9.86-5.77A9.15,9.15,0,0,1,596.31,451.89Z"/><path class="cls-2" d="M613.73,524.6a29.76,29.76,0,0,0,10.73-3,22.69,22.69,0,0,0,9.34-8.5,22.43,22.43,0,0,0,3.15-11.6c0-5.29-1.16-9.6-3.45-12.8a22.86,22.86,0,0,0-8.46-7.36,126.14,126.14,0,0,0-13.53-5.51c-2.63-.86-5-1.7-7-2.5H580.31a23.46,23.46,0,0,0,8.41,7.38A96.13,96.13,0,0,0,601.9,486c4.23,1.42,7.61,2.69,10.05,3.77a18.79,18.79,0,0,1,6.43,4.64,11.26,11.26,0,0,1,2.71,7.7,11.56,11.56,0,0,1-3.33,8.5l0,0a12.79,12.79,0,0,0-4,9Z"/><g class="cls-7"><path class="cls-8" d="M465.35,484.55a46.62,46.62,0,0,1-5.41,22.76,37.72,37.72,0,0,1-15.59,15.23c-6.79,3.61-15,5.45-24.49,5.45h-1.5v-2.22a12.27,12.27,0,0,1,9.75-11.9,28,28,0,0,0,13.6-7c5.55-5.34,8.37-12.86,8.37-22.34s-2.82-17.1-8.37-22.45-13.39-8-23.35-8H389.49V441.38h30.37c9.45,0,17.7,1.8,24.51,5.34a37,37,0,0,1,15.57,15C463.54,468.22,465.35,475.9,465.35,484.55Z"/><path class="cls-8" d="M389.49,528h15V480a12.13,12.13,0,0,0-12.13-12.13h-2.88Z"/></g><path class="cls-2" d="M458.46,481.28A46.58,46.58,0,0,1,453.05,504a37.6,37.6,0,0,1-15.59,15.23c-6.79,3.62-15,5.46-24.49,5.46h-1.5v-2.23a12.26,12.26,0,0,1,9.75-11.89,28.07,28.07,0,0,0,13.6-7c5.56-5.34,8.37-12.86,8.37-22.34s-2.81-17.11-8.37-22.46-13.39-8-23.35-8H382.6V438.11H413c9.45,0,17.7,1.8,24.51,5.34a36.87,36.87,0,0,1,15.57,15C456.65,465,458.46,472.63,458.46,481.28Z"/><path class="cls-2" d="M382.6,524.72h15v-48a12.15,12.15,0,0,0-12.14-12.14H382.6Z"/><g class="cls-7"><path class="cls-8" d="M327.29,492.41c2.9,2.41,4.37,5.87,4.37,10.28s-1.45,7.81-4.32,10.17-6.76,3.42-11.81,3.42h0A10.73,10.73,0,0,0,304.8,527v1h14.28c9.16,0,16.2-2.08,20.94-6.19s7-9.67,7-16.72a20.42,20.42,0,0,0-4.56-13.22,20.15,20.15,0,0,0-12.17-7.17l-6.39-1.31,6.35-1.48a19.12,19.12,0,0,0,10.7-6.49c2.68-3.26,4-7.56,4-12.78,0-6.8-2.21-11.91-6.75-15.62s-11.31-5.64-20-5.64H282.11v23.74H285A12.13,12.13,0,0,0,297.12,453v-.14h17.27c5.07,0,8.93,1.14,11.47,3.4s3.9,5.56,3.9,9.69-1.34,7.38-4,9.64-6.35,3.32-11.14,3.32H282.11v9.94h33.3C320.44,488.84,324.44,490,327.29,492.41Z"/></g><path class="cls-3" d="M320.4,489.14c2.9,2.4,4.37,5.86,4.37,10.27s-1.45,7.82-4.32,10.17-6.76,3.43-11.8,3.43h0a10.73,10.73,0,0,0-10.74,10.73v1h14.28c9.16,0,16.2-2.08,20.94-6.18s7-9.67,7-16.72a20.47,20.47,0,0,0-4.55-13.22,20.19,20.19,0,0,0-12.18-7.18l-6.39-1.3,6.35-1.49a19.1,19.1,0,0,0,10.7-6.48c2.68-3.27,4-7.57,4-12.79,0-6.79-2.21-11.9-6.75-15.62s-11.31-5.63-20-5.63H275.22v23.74h2.88a12.15,12.15,0,0,0,12.14-12.14v-.14H307.5c5.07,0,8.93,1.15,11.47,3.41s3.9,5.55,3.9,9.68-1.33,7.38-4,9.65-6.35,3.31-11.14,3.31H275.22v9.94h33.3C313.56,485.56,317.55,486.77,320.4,489.14Z"/><g class="cls-7"><path class="cls-8" d="M522.27,519.25h3.45V453h23.42v-14.9H482.55V453H506V503A16.29,16.29,0,0,0,522.27,519.25Z"/></g><path class="cls-2" d="M531.52,519.25H535V453h23.42v-14.9H491.8V453h23.42V503A16.29,16.29,0,0,0,531.52,519.25Z"/></g></g></svg>